<svg width="325" height="401" viewBox="0 0 325 401" fill="none" xmlns="http://www.w3.org/2000/svg">
<path d="M97.5 64.5L100 50L114.5 25.5L174.5 1H209.5L236.5 3L251 7.5L269 1L271 5.5L279.5 3V7.5L283 3L289.5 1L287.5 9.5L274 20.5L278 22L291 9.5L294 11V19L283 29.5L307.5 19L310.5 29.5L303.5 39L313 41V51.5M97.5 64.5L62.5 66L46 72.5V83L48 86.5L60 123L70 135L82 140.5M97.5 64.5L100 66L113 69H137.5L161.5 61.5L197.5 56.5H217H241L310.5 51.5M82 140.5L56.5 169L37.5 181L31 190L24.5 215V221L31 235L37.5 233L44 221L66 218.5L97.5 200L119 184H142.5L165.5 190L176 199L155.5 229.5L134 271.5L92.5 285L66 298L48 315L16 342.5L2 374.5L12 367V378.5L24.5 374.5L17.5 390.5L21.5 388V393L27.5 384.5L31 388L37.5 374.5V384.5L48 382L51 388L62.5 382L60 390.5L68.5 385.5L72 393L97.5 384.5L109 388L117 385.5L126.5 390.5L140.5 385.5L147 390.5L150 388L158 393L160.5 388L167.5 399.5L171 393L176 395.5L187 390.5L201 393L215.5 388H229L248 382H281.5L289.5 371.5H297L302 363.5H305L307 356.5L314 358.5L317 352V339.5L323.5 334L317 324L284 288L273.5 271.5L276 268.5L271.5 266.5L267.5 260L273.5 225.5L289.5 178L298 135V108L294 86.5L302 88.5L305 83L310.5 80.5L307.5 75.5L314.5 71L310.5 67.5L319.5 58.5L313 51.5M82 140.5L104.5 105.5L113 80L114.5 76.5H134L140.5 98L161.5 132L174.5 137H207M313 51.5L314.5 60L305 64.5L249 69L241 72.5L239 105.5L234 123L209.5 137H207M125.5 181L161.5 166L192 144.5L207 137" stroke="#65A4BA" stroke-width="1.2"/>
</svg>
